<svg id="sig" xmlns="http://www.w3.org/2000/svg" viewBox="0 0 471.31 200"><defs><style>.cls-1{fill-rule:evenodd;}</style></defs><title>sig</title><path class="cls-1" d="M219.22,74.55l-1.43.78.19,1.08-3.15.5c-.1,0-.27,0-.3,0-.92,1.34-2.45.61-3.57,1.07a16.88,16.88,0,0,1-3.87.7c-.85.14-1.72.19-2.57.3s-2.14,0-2.92.45c-1.8,1.1-3.79.52-5.65.87-1.34.25-2.84.09-4.15.58a8.88,8.88,0,0,0-2.12,1.63l.14.35a7.37,7.37,0,0,0,.94.13c1.71,0,3.41,0,5.12.05,5.06.12,10.11.23,15.17.39a22.68,22.68,0,0,1,5.37.49c1.69.48,3.6.34,5.08,1.61a3,3,0,0,1,.61,2.88,1.54,1.54,0,0,1-1.59.88c-3.18-.08-6.36.07-9.53-.13-2.87-.18-5.71.3-8.57.13a1.33,1.33,0,0,1-1.33-.85,2,2,0,0,0-2.23-1.17c-.84.05-1.69-.19-2.53-.19-1.17,0-2.33.18-3.5.16s-2.18-.23-3.27-.29a2.83,2.83,0,0,0-3,2.48,9.85,9.85,0,0,1-1.34,2.33c-.22.37-.43.75-.64,1.13l-1.91,3.33c.43-.07.7,0,.86-.15.94-.73,1.88-1.45,2.75-2.25.55-.51.9-1.24,1.47-1.74a9.74,9.74,0,0,1,2.09-1.35,3.73,3.73,0,0,1,1.8-.48,1.89,1.89,0,0,1,1.95,1.29c0,.15.32.22.47.36a2.63,2.63,0,0,1,.46.49c-.71.9.37,2.27-.79,3-.11.08-.15.3-.17.46-.18,1.61-.34,3.21-.52,4.82a3.92,3.92,0,0,1-.19.89,1.48,1.48,0,0,0,1.34,2.1,22.32,22.32,0,0,0,3.24,0,11,11,0,0,0,1.91-.65,8.47,8.47,0,0,0,3.45-1.83c.84-.79,1.87-1.4,2.66-2.23a3.09,3.09,0,0,0,1.08-2.4,1,1,0,0,1,.13-.6,19.32,19.32,0,0,1,1.4-2.15,6.35,6.35,0,0,1,1.66-1.53c.34-.2,1-.44,1.33.43.12.36.73.54,1,.9a3.45,3.45,0,0,1-.32,3.12c-.59,1-1.4,2-1.4,3.37,0,1.16.84,1.37,1.58,1.48a9,9,0,0,0,4.53-.63,1.3,1.3,0,0,1,.28-.1,10.49,10.49,0,0,0,4.42-1.74c1-.67,2.12-1.21,3.13-1.89a7.06,7.06,0,0,0,1.92-1.59c.85-1.19,2.36-1.75,2.82-3.35.23-.81,1.26-1,2.21-.92a3,3,0,0,1,2.32,2,1.93,1.93,0,0,1-.42,1.36,2.86,2.86,0,0,0-.47,2.5c.08.12.28.15.49.25l-.63.5c1.08.89,2.06,1.45,3.52.91a21.72,21.72,0,0,1,3.45-.56,19.16,19.16,0,0,0,2.26-.66,9.3,9.3,0,0,0,2.06-.77c1.15-.71,2.9-.6,3.33-2.35,0-.07.15-.14.24-.18,1.12-.5,2.1-1.51,3.41-1l1.47,2.35.16-.1c0,.07,0,.15,0,.2-.16.31-.34.61-.5.91a6.06,6.06,0,0,0,1.18.52,6.88,6.88,0,0,0,2.56.36c1.15-.21,2.21.23,3.33.12s2.37,0,3.56,0a36,36,0,0,0,3.67-.06c2.19-.23,4.37-.53,6.54-.89a45.09,45.09,0,0,0,4.47-1c1.36-.37,2.67-.9,4-1.31.71-.22,1.46-.31,2.18-.53s1.58-.57,2.37-.85c1.65-.57,3.3-1.12,4.95-1.69a27.8,27.8,0,0,0,3.08-1.17c.67-.33,1.32-.7.73-1.81a16.17,16.17,0,0,1-1.4-4.13,10.33,10.33,0,0,1,.12-2.73c0-.27.11-.55.11-.82,0-.6-.06-1.1.57-1.58.38-.29.33-1.13.49-1.72a19.36,19.36,0,0,1,2.62-5.3c.75-1.18,1.42-2.41,2.2-3.57a22.52,22.52,0,0,1,1.57-1.93c.17-.21.38-.38.54-.6.64-.87,1.25-1.76,1.9-2.63.25-.33.67-.56.85-.92a23.07,23.07,0,0,1,3.5-4.32c.93-1.08,1.68-2.32,2.54-3.47.4-.53.85-1,1.29-1.53.86-1,1.77-1.94,2.59-3,1-1.3,2-2.69,3.05-4s2.35-2.5,3.49-3.79c.6-.68,1.06-1.47,1.63-2.17s1.41-1.61,2.1-2.43,1.71-1.6,2.47-2.44a25.24,25.24,0,0,1,2.09-2.11,20.15,20.15,0,0,0,1.79-2.18c.5-.58,1.09-1.07,1.61-1.64,1.54-1.7,3-3.44,4.61-5.12a16.55,16.55,0,0,1,1.77-1.56c.88-.72,1.84-1.35,2.67-2.12a20.34,20.34,0,0,0,1.66-2c.15-.18.29-.42.49-.5,1.47-.59,2.18-2,3.35-3a34.05,34.05,0,0,0,2.59-2.42c.77-.75,1.5-1.53,2.26-2.3a1.33,1.33,0,0,1,.34-.31,8.07,8.07,0,0,0,2.65-1.53c.54-.53,1.78-.35,2.8-.51a2.53,2.53,0,0,0,1,2.19c.29.21.29,1.22,0,1.67-1,1.76-1,3.78-1.75,5.59-.49,1.18-1.08,2.33-1.59,3.5-.35.81-.63,1.65-1,2.47-.62,1.53-1.22,3.07-1.9,4.57-.46,1-1.43,2-1.49,3S350,32.8,350,33.81a5.47,5.47,0,0,1-1.38,3.5c-.23.28-.85.23-1.42.37a3.33,3.33,0,0,1,.41,1.24,8.16,8.16,0,0,1-.54,2.15c-.22.58-.65,1.09-.89,1.66a6.82,6.82,0,0,0-.39,1.56,2.78,2.78,0,0,1-.94,2.17c-.19.14-.12.6-.27.86a12.54,12.54,0,0,0-1.86,4,9.85,9.85,0,0,1-1.36,3,15.54,15.54,0,0,0-1.52,4.46,5.87,5.87,0,0,1-2.32,2.48,3.1,3.1,0,0,0-.68.38l.66.94-.9.22.53,1.16a13.39,13.39,0,0,1-1.3,2.54c-.88,1.1-.36,2.85-1.85,3.68-.37.21-.39,1-.62,1.52-.75,1.69-1.53,3.36-2.28,5-.24.55-.38,1.15-.65,1.69s-.29,1.48-1.17,1.77c-.15,0-.26.47-.25.72a3.45,3.45,0,0,1-1.09,2.37,18.76,18.76,0,0,0-1,2.06c-.37.64-.88,1.19-1.29,1.82a2.66,2.66,0,0,0-.58,1.24c0,1.57-1,2.67-1.7,3.9-.5.82-.87,1.7-1.3,2.56,0,.09,0,.22,0,.31-.48,1-.48.93.58,1.17.4.09.75.41,1.15.54,1.21.38,1.71-.69,2.32-1.32.91-.94,2.18-1.61,2.45-3.1,0-.23.38-.45.63-.6a7.38,7.38,0,0,0,1.79-2.26A19.64,19.64,0,0,1,332.46,88c.79-.86,1.57-1.73,2.31-2.63,1.15-1.38,2-3,3.75-3.87a4.48,4.48,0,0,0,1.38-1.76c.67-1.12,1.87-1.35,2.92-1.64a7.68,7.68,0,0,1,3.12,0c1.74.27,3.45.75,5.18,1.1a7.92,7.92,0,0,1,3.62,2.21,1.39,1.39,0,0,0,1.93-.13c1.08-1,2.35-1.75,3.48-2.68A22.12,22.12,0,0,0,362.82,76a4.18,4.18,0,0,1,6.8.58c.6,1,1.52,1.87,1.53,3.17,0,.85,0,1.69,0,2.76,1-.48,1.61-.77,2.22-1.11s1.2-.82,1.85-1.14a45.59,45.59,0,0,1,4.78-2.2,8.36,8.36,0,0,1,4.48,0c1.24.26,2,1.36,2.78,2.4a3.93,3.93,0,0,0,4.5.69,1.34,1.34,0,0,1,.57-.2,25.79,25.79,0,0,1,3.16-.4,17.54,17.54,0,0,0,5.35-1.26c.86-.29,1.77-.45,2.64-.72.42-.13.79-.46,1.22-.58,2.55-.74,5.11-1.45,7.67-2.16a1.52,1.52,0,0,1,1.51,1.06c0,.52,0,1,0,1.63,2.05,0,4.07.13,6.06,0a24.76,24.76,0,0,0,4.37-1c1.09-.3,2.15-.77,3.24-1.08.74-.21,1.53-.26,2.28-.45a3.72,3.72,0,0,0,.94-.51c1-.59,2.28-.17,3.13-1.3.34-.45,1.43-.27,2.11-.54,1.46-.58,2.89-1.24,4.31-1.91,1.73-.82,3.43-1.69,5.14-2.55.94-.47,1.88-.95,2.8-1.45,1.71-.93,3.38-2,5.13-2.81,1.19-.58,2.48-1,3.87-1.48l.79,1.07c-1,.61-2.22.42-2.72,1.64-.17.42-1,.6-1.5.85-.88.42-1.79.77-2.66,1.2S449.7,69,449,69.42c-1,.54-2,1-2.92,1.61-.58.36-1,.88-1.61,1.27a1.62,1.62,0,0,1-.85.22c-.61,0-1.07.1-.78,1-.91-.21-1.49-.13-2,.79-.21.42-1.35.38-2,.53-.42.41-.77,1-1.28,1.21-1.46.67-3,1.2-4.49,1.77s-3,1.08-4.48,1.7c-1.93.82-4,1-6,1.51a31.23,31.23,0,0,1-8,1c-1.22,0-2.44-.12-3.65,0a6.12,6.12,0,0,0-2.21.82c-.67.37-2.66.16-3.13-.46-.81-1.09-.88-1-2.75-.29s-3.67,1-5.39,1.81a11.92,11.92,0,0,1-3.79,1.06,33.74,33.74,0,0,0-4.36.73c-1.61.37-3,.52-4.3-.92-.7-.8-1.76-1.23-2.37-2.25a1.9,1.9,0,0,0-1.83-.34c-1.08.92-2.56.54-3.61,1.34-1.56,1.2-3.47,1.9-4.76,3.5-.75.93-1.38,2.26-3,1.92a19.7,19.7,0,0,1-2-.65c-.22-.67-.5-1.49-.77-2.32,0-.11-.09-.3,0-.36,1.23-1.24.82-2.8.75-4.25a6,6,0,0,0-.61-2.21c-.22-.45-.64-.68-1.27-.22a22.73,22.73,0,0,0-4.22,3.85,17.46,17.46,0,0,1-2.3,1.87,9.67,9.67,0,0,0-2,1.86c-.63,1-1.67,1.32-2.4,2.06a29.73,29.73,0,0,0-2.41,3.16c-.32.12-.86.3-1.4.52-.15.06-.38.24-.37.36,0,.72-.53.59-.92.83-1.16.71-1.94-.1-2.79-.54a1.54,1.54,0,0,1-.3-2.63s.13-.1.13-.15c0-1.66,1.82-1.78,2.5-2.89a19.47,19.47,0,0,1,1.41-1.82l.47-.61-.69-1.2.14-.26-4.7-.6a1.66,1.66,0,0,1-.73.27c-2-.13-3.22,1-4.44,2.32s-2.37,2.38-3.57,3.55-2.44,2.18-3.49,3.42c-1.27,1.51-2.35,3.18-3.73,5.08l5.48-.27c.07,0,.13-.07.19-.08,1.6-.26,3.19-.61,4.8-.75,1-.09,1.49-.39,1.41-1.39a3.25,3.25,0,0,1,4.09,2.33,8.45,8.45,0,0,1,.33,1.77c.06,1-.79,1.07-1.48,1.17s-1.56-.15-2.18.13c-2,.9-4.16.42-6.21.88a23.09,23.09,0,0,1-4.8.15c-1.29,0-2.58,0-3.87-.06a3,3,0,0,0-2.7,2,6,6,0,0,1-2.65,2.52c0,.85,0,1.55-.94,2.13-.8.47-1.28,1.5-1.91,2.28-.28.34-.59.66-.88,1-.11.13-.29.23-.34.38-.54,1.66-1.81,2.85-2.73,4.27-.61.94-1.24,1.87-1.83,2.82-.88,1.42-1.73,2.87-2.62,4.29s-1.73,2.55-2.54,3.86c-.62,1-1.11,2.06-1.72,3.05s-1.46,2.16-2.12,3.27c-.55.91-1,1.9-1.48,2.83s-1.07,1.91-1.63,2.84c-1,1.62-2,3.21-3,4.84a48.37,48.37,0,0,0-2.82,5c-.43,1-1.33,1.58-1.55,2.75-.17.89-1.21,1.59-1.78,2.43a14.25,14.25,0,0,0-.6,1.48c-1,2-2.51,3.69-3.38,5.79a25.6,25.6,0,0,1-2.18,3.35c-1.12,1.82-2.16,3.68-3.27,5.49-.66,1.07-1.45,2.06-2.08,3.14-.82,1.41-1.52,2.9-2.32,4.33-.31.55-.77,1-1.11,1.54-.47.73-.91,1.49-1.33,2.26s-.76,1.42-1.14,2.13c0,.06-.11.1-.14.16-.56,1.5-1.11,3-1.66,4.52-.37,1-.65,2.06-1.09,3-.29.63-.75.79-1.57.47a5.83,5.83,0,0,1-2.47-1.66c-.12-.14-.06-.45,0-.68a5.49,5.49,0,0,1,.11-.56c.17-1,.33-2,.53-3,0-.14.28-.24.43-.36s.39-.27.47-.46a20.46,20.46,0,0,1,1.54-3.46c.82-1.16,1.11-2.64,2.27-3.6.25-.2.1-.84.3-1.17.66-1.09,1.41-2.14,2.11-3.21.2-.31.32-.66.49-1,.78-1.5,1.58-3,2.36-4.5s1.53-3.07,2.34-4.58a36.75,36.75,0,0,1,2.56-4.45c1.13-1.54,1.64-3.36,2.58-5s2.1-3.46,3.08-5.24c1.1-2,2.09-4.09,3.18-6.11.47-.88,1.14-1.67,1.61-2.55.8-1.51,1.48-3.08,2.27-4.59.68-1.3,1.45-2.54,2.16-3.82.58-1,1.1-2.13,1.7-3.17s1.43-2.28,2.13-3.44a13.52,13.52,0,0,0,.81-1.62c.43-1,.76-2,1.24-3,.34-.69.89-1.26,1.26-1.94.59-1.09,1.06-2.25,1.67-3.33s1.34-1.92,1.92-2.94c.84-1.48,1.59-3,2.36-4.52s1.54-3.12,2.34-4.66c.5-1,1.07-1.91,1.58-2.88a2.15,2.15,0,0,0,.06-.76c-1.2-.17-2.37-.27-3.5-.52a16.67,16.67,0,0,1-2.32-.86c-.06,0-.11-.09-.17-.11-1.17-.3-2.37-.54-3.51-.92a25.59,25.59,0,0,1-2.92-1.26c-1.08-.52-2.16-1.06-3.21-1.65a12.41,12.41,0,0,1-1.36-1.06c-1.48-1.14-1.51-1.11-2.79-.14a17.39,17.39,0,0,1-3.64,1.61c-1.25.55-2.45,1.21-3.73,1.66-1.89.65-3.83,1.14-5.75,1.71-.69.21-1.36.47-2,.69s-1.57.55-2.38.73a44.44,44.44,0,0,0-5.57,1.19c-2,.71-4,.61-5.92.94a14.19,14.19,0,0,1-2.51.36c-2.36,0-4.72-.14-7.07-.28-2.19-.13-4.39-.3-6.57-.54a4.82,4.82,0,0,1-1.49-.71,3.1,3.1,0,0,0-3.63.55,4.47,4.47,0,0,1-1.6.53c-.72.19-1.46.34-2.18.52s-1.67.41-2.49.68a16.18,16.18,0,0,1-6.23.68,3,3,0,0,1-1.62-.77c-1-.87-2.09-1.68-2.29-3.44l-1.31.85c-.63.39-1.28.76-1.89,1.17s-1.17.88-1.77,1.3a3.24,3.24,0,0,1-1,.56,5.49,5.49,0,0,0-2.2,1,5.27,5.27,0,0,1-2,.64c-2.56.62-5.07,1.6-7.78,1.33-.24,0-.62,0-.69-.11-.59-1.1-1.9-1-2.71-1.76a3.41,3.41,0,0,1-.51-1c-.49.34-1,.7-1.57,1.09-1.38,1-2.75,2-4.12,3-.08.06-.14.16-.23.17-1.43.24-2.85.54-4.29.67a26.88,26.88,0,0,1-3.25,0c-1.55,0-3.3-1.69-4.07-3.24a4.79,4.79,0,0,1-.37-3.89c.52-1.28.26-2.47.52-3.67l-.22-.29a9.58,9.58,0,0,0-1.86,1.06c-1.23,1.11-2.38,2.31-3.54,3.5-.83.85-1.59,1.76-2.43,2.58-.55.54-1.23,1-1.8,1.48a5.83,5.83,0,0,0-.74,1c-.06.08,0,.23-.11.28-1,.69-2,1.35-3,2.06-.72.52-1.44,1.05-2.1,1.64a2,2,0,0,1-3.09-.27c-.42-.52-.91-1-1.53-1.66-.37.29-.86.72-1.39,1.09a10.62,10.62,0,0,1-4,2.14,6.34,6.34,0,0,0-1.93.73c-1.19.69-2.24.14-3.32-.25-.51-.19-1-.41-1.54-.55a5.81,5.81,0,0,1-1.84-.64,9.42,9.42,0,0,0-1.08-.88c-.88-.53-.65-1.33-.57-2.09,0-.19.27-.4.23-.53-.46-1.23.14-2.29.45-3.4a8.41,8.41,0,0,0,.06-1c.33-2.29.69-4.58,1-6.87a7.22,7.22,0,0,0,0-1l-.3-.17a26.21,26.21,0,0,1-2.27,3.26c-.54.59-.7,1.41-1.51,1.88-.64.37-.89,1.37-1.41,2a22.9,22.9,0,0,1-1.81,1.78,8.51,8.51,0,0,0-.78.73c-1.1,1.36-2,2.88-3.64,3.76a18.13,18.13,0,0,0-2.53,2.26,4.61,4.61,0,0,1-1.38.54l-3.55,1.23c-.19.07-.36.23-.55.25-2,.15-4,.35-6,.4a10.87,10.87,0,0,1-2.84-.39c-.34-.09-.66-.52-.87-.87a7.16,7.16,0,0,1-.49-1.26l1-2.8c-.58.21-1,.24-1,.4-.64,1.4-2.12,1.85-3.14,2.8a14.66,14.66,0,0,1-4.07,2.22c-1.42.66-3,.7-4.34,1.3a.4.4,0,0,1-.19.06c-1.64-.3-3.4.52-4.87-.05-1.62-.64-3.7-.27-4.85-2.07-.58-.91-1.43-1.64-1.42-2.85,0-.28-.2-.76-.39-.81-.41-.11-1.12-.17-1.29.07-1.25,1.7-3.24,2-5,2.78-.33.15-.64.34-1,.55-.69-.36-1.45-1-2.34,0-.13.14-.82-.05-1.3.06a10.6,10.6,0,0,1-3.25.37c-.73-.06-1.67,0-2.21-.81-.08-.12-.39-.08-.58-.14a3,3,0,0,1-2-2.26,7.51,7.51,0,0,1,.48-4.17c0-.11,0-.26-.06-.69-.76.58-1.39,1.05-2,1.54-1.12.88-2.18,1.85-3.36,2.63-1.61,1.06-3.35,1.92-5,3a4,4,0,0,1-2.75,1,3.11,3.11,0,0,1-2.2-2.28c-.12-1.7.88-3.05,1.33-4.58.4-1.36,1.46-2.35,2.15-3.53.84-1.45,1.31-3.12,2.06-4.63.57-1.15,1.35-2.19,2-3.28a14.23,14.23,0,0,1,2-3.14c.91-.84.72-2.24,1.92-2.91.52-.29.5-1.41.93-2,.75-1,1.2-2.23,1.91-3.29.86-1.29,2-2.34,2.75-3.7a13.26,13.26,0,0,0,.74-1.75.35.35,0,0,0-.63-.28c-.62,1.6-2,2.47-3.27,3.44a15.13,15.13,0,0,0-2.34,2.83,4.21,4.21,0,0,1-.79.82c-.85.59-1.77,1.08-2.58,1.72-1,.75-1.84,1.62-2.76,2.42a15.93,15.93,0,0,1-5,3.46,8.19,8.19,0,0,0-2,1.39c-.94.72-1.83,1.51-2.8,2.2a1.23,1.23,0,0,1-1,0,7.67,7.67,0,0,1-1.76-.87,1.5,1.5,0,0,1-.61-1,5.94,5.94,0,0,1,1.33-4.37c.37-.39.37-1.12.54-1.7.52-1.75,1-3.52,1.56-5.25.31-.93.85-1.77,1.18-2.69.6-1.65,1.13-3.33,1.7-5a3.21,3.21,0,0,1,.27-.49l.95-1.71-.47-.29c-.49.67-1,1.31-1.46,2A31.54,31.54,0,0,0,64,77.94a14.9,14.9,0,0,1-2.36,2.92,31,31,0,0,0-2.24,3.48c-1,1.69-1.86,3.5-3.46,4.78a7.86,7.86,0,0,0-1.42,1.6c-1.08,1.51-2,3.11-3.21,4.55-1,1.23-2.23,2.28-3.32,3.43-.56.59-1.07,1.22-1.59,1.85-1,1.15-1.87,2.33-2.86,3.44-.54.61-1.24,1.07-1.81,1.67-.2.21-.2.61-.3.94-1.39.17-1.88,1.49-2.81,2.28-1.59,1.35-2.73,3.19-4.75,4.09a7,7,0,0,0-2.18,1.89,2.09,2.09,0,0,1-2.8.15c-.32-.27-.68-.51-1-.77l-.34.13v-3.59l.39.17a6.6,6.6,0,0,0,1-1,13.8,13.8,0,0,0,2.25-4.35,10.54,10.54,0,0,1,2-3.17c.94-1.31,2.05-2.5,2.87-3.87s1.25-2.82,1.94-4.2c.79-1.56,1.64-3.1,2.52-4.61.42-.73,1-1.37,1.47-2.07a21.85,21.85,0,0,0,1.39-2.14c1-2,2-4,3-5.93.18-.34.65-.53,1-1a5.94,5.94,0,0,0-1.31,0,19.29,19.29,0,0,0-3,.86c-2,.82-4.1.93-6.14,1.44-.13,0-.3,0-.37.13a2.75,2.75,0,0,1-2.29.89,5.7,5.7,0,0,0-3.37,1A6,6,0,0,1,29,83.4c-1.63.44-3.23,1-4.88,1.31a24.14,24.14,0,0,0-3.76,1.19,22.72,22.72,0,0,1-3.15.49c-1,.2-2,.58-3,.74a12,12,0,0,1-2.17,0c-.07,0-.14-.07-.2-.06-1.44.35-2.1-.84-2.94-1.56s-.6-2.79.21-3.61c.65-.66,1.15-1.48,1.82-2.12s1.73-1.45,2.59-2.18c.52-.44,1-.93,1.51-1.37.94-.8,1.88-1.6,2.85-2.37a21.67,21.67,0,0,1,3.35-2.55c.74-.39,1-1,1.49-1.48a13.07,13.07,0,0,1,2-1.26c.58-.41,1.1-.92,1.67-1.34,1-.77,2.12-1.5,3.18-2.25a11.06,11.06,0,0,0,2.17-1.6,15.1,15.1,0,0,1,3.51-2.55c.86-.58,1.59-1.35,2.41-2,1-.81,2.11-1.56,3.16-2.34,1.37-1,2.74-2,4.1-3.05,1.05-.8,2-1.71,3.13-2.43,2-1.27,4-2.47,5.31-4.45.12-.18.51-.14.73-.29,1.11-.73,2.23-1.44,3.29-2.24,1.46-1.1,2.83-2.33,4.32-3.39,1-.68,2.08-1.1,3.07-1.72a34.84,34.84,0,0,1,3.85-2.52,7.72,7.72,0,0,1,3.67-.64c1.38.11,2,2.1,1.67,3.44a15.68,15.68,0,0,1-.74,2.63,20.1,20.1,0,0,1-1.56,3c-.79,1.24-1.94,2.2-2.49,3.66a21.92,21.92,0,0,1-1.87,3.09c-.3.52-.48,1.11-.74,1.66-.45,1-.87,2-1.38,2.91-.32.59-.8,1.08-1.18,1.64-1.07,1.57-2.13,3.14-3.17,4.73a20.67,20.67,0,0,0-2.56,5,3,3,0,0,1-.58.93c-1,1.26-1,2-.11,3.3A1.43,1.43,0,0,1,56.94,74c-.89.4-1.82.69-2.69,1.12a6.44,6.44,0,0,0-2.85,3.23c-.92,1.9-1.77,3.85-3.51,5.23a3.89,3.89,0,0,0-.73,1.31c-.56,1.1-1.09,2.22-1.68,3.31s-1.31,2.33-2,3.51c-.22.41-.35.87-.57,1.29-.3.59-.62,1.17-1,1.74-1.15,1.95-2.32,3.88-3.47,5.83-.74,1.25-1.5,2.49-2.21,3.75a7.44,7.44,0,0,0-.44,1.22l.25.21c.34-.36.68-.71,1-1.08.56-.63,1.06-1.32,1.66-1.9.87-.84,1.8-1.62,2.72-2.41.52-.44,1.06-.86,1.61-1.26,1.46-1.07,2.14-2.74,3.23-4.1,1.28-1.6,2.79-3,4.05-4.64.89-1.14,2.27-2,2.43-3.64,0,0,0-.08,0-.1.79-.91,1.61-1.81,2.38-2.74s1.39-1.7,2-2.58c.38-.51.66-1.1,1-1.63.52-.76,1.09-1.49,1.58-2.26.39-.61.64-1.32,1.06-1.9.85-1.15,1.84-2.21,2.65-3.38,1.22-1.75,2.33-3.58,3.5-5.37.55-.84,1.09-1.68,1.71-2.46,1.2-1.52,2.49-3,3.67-4.5.59-.77.87-1.8,1.51-2.5,1.3-1.43,1.72-3.52,3.48-4.6a.93.93,0,0,0,.4-.69c-.05-.94.72-1.38,1.17-2,.7-.93,2.21-.76,3.16,0s.81,1.73.82,2.69c0,.25-.46.47-.62.76A23.34,23.34,0,0,0,80,58a17.4,17.4,0,0,1-1.87,3.25c-.68,1.17-1.34,2.35-2,3.52-.37.63-.86,1.2-1.17,1.86-.62,1.28-1.14,2.61-1.73,3.91-.69,1.51-1.42,3-2.11,4.5-.55,1.21-1,2.44-1.6,3.64-.3.65-.71,1.26-1,1.92s-.51,1.54-.76,2.31c-.43,1.36-.85,2.73-1.29,4.09-.25.75-.53,1.49-.84,2.37A4.36,4.36,0,0,0,68.07,88a8.29,8.29,0,0,1,2.08-1.56c1.33-.46,2.09-1.51,3.1-2.3s1.51-1.91,2.91-2.26c.93-.23,1.7-1.26,2.44-2s1.63-2,2.46-2.91c.59-.68,1.22-1.32,1.84-2s1.41-1.42,2.06-2.18a17.35,17.35,0,0,0,2.19-2.82c.8-1.47,2.31-2.25,3.21-3.59A37.22,37.22,0,0,1,93,62.84a15.77,15.77,0,0,1,2-1.64,2.08,2.08,0,0,0,.71-.78,7,7,0,0,1,3.16-3.87,4.24,4.24,0,0,1,1.83-.23c.8,0,.95.54,1.05,1.16a.64.64,0,0,0,.31.35,1.14,1.14,0,0,1,.31,1.89,16.3,16.3,0,0,0-2.72,3.69c-.29.64-.5,1.79-1.73,2-.45.08-.73,1.11-1.09,1.7a21.71,21.71,0,0,0-1.83,3c-.58,1.45-2.05,2.09-2.75,3.36a19.4,19.4,0,0,0-2.36,4.88,3.15,3.15,0,0,1-1.27,1.64c-.88.61-1.06,1.58-1.53,2.39-.59,1-.89,2.16-1.46,3.16s-1.38,2-2,3a14.76,14.76,0,0,1-1.73,2.91c-1.31,1.25-1.26,3.14-2.46,4.41a17.93,17.93,0,0,0-1.45,2.46c-.68,1-1.49,2-2.16,3-.38.57-.55,1.27-.92,1.85-1,1.58-1.32,2.36-1.17,3.43,1.5-.94,3-1.82,4.48-2.82,1-.66,1.81-1.47,2.72-2.2a11.85,11.85,0,0,0,1.91-1.52c.9-1.11,2.29-1.53,3.26-2.62a8.34,8.34,0,0,1,3.64-2.83c.86-.27,1.42-1.42,2.16-2.12a3.62,3.62,0,0,1,1.47-1,5.61,5.61,0,0,0,3-1.94c.34-.37,1-.41,1.57-.6,1.3-.48,2.59-1,3.89-1.44a3.77,3.77,0,0,1,.83-.08c1.34-.14,2.69-.27,4-.46.27,0,.5-.35.63-.45.57.18,1.08.32,1.56.51.27.11.69.28.73.48a8.29,8.29,0,0,1,.21,2.62c-.13.81.16,2.44.79,2.86a3.84,3.84,0,0,0-.45.9c-.31,1.48-.48,3-.88,4.44a26.72,26.72,0,0,1-1.54,4.08,4.72,4.72,0,0,1-1.34,1.5c-1.26,1-1.1,2.38-1,3.78s.95,1.82,2,2.47c1.63,1,3.31.45,5,.6a3.77,3.77,0,0,0,1.15,0c1.81-.41,3.68-.66,5.15-2,.11-.1.33-.07.49-.13a7.87,7.87,0,0,0,3.47-2.93,9.75,9.75,0,0,1,1.61-1.41,7.33,7.33,0,0,0,2.34-2.8c.14-.4.72-.63,1-1a35.58,35.58,0,0,0,2.47-3.75c.66-1.24,1-2.63,1.59-3.93.37-.85.88-1.65,1.28-2.49.29-.61.47-1.27.74-1.89.4-.91.87-1.8,1.27-2.71a2.35,2.35,0,0,0,0-.79h-6.61c-.93,0-1.92.13-2.29-.81a8.09,8.09,0,0,1-1.64.38c-3.38,0-6.77,0-10.16,0-.15,0-.3-.07-.47-.33a1.84,1.84,0,0,1,.55-.19c2.76,0,5.52,0,8.27-.12,1.54-.07,3.06-.45,4.59-.65a18.25,18.25,0,0,1,2.19-.14c.67,0,.87-.3.74-.85l-10.45-.82s0-.19,0-.42h6.9c2.62,0,5.23,0,7.85,0a16.2,16.2,0,0,0,2.71-.46.6.6,0,0,0,.33-.33c.5-1.12,1-2.25,1.47-3.37s.91-2,1.37-3l2.26-4.95a3.82,3.82,0,0,1,.91-.55,1.49,1.49,0,0,1,1,.06A3,3,0,0,1,146,72.36c-.35,1-.86,2-1.25,3.08a4,4,0,0,0-.31,1.41c0,1.45-1.15,2.52-1.35,4.11h7.43c2,0,4,0,6,0,2.2,0,2.76-.52,3.5-2.62.57-1.63,1.55-3.12,2.14-4.74s1.64-2.93,1.88-4.68a6.61,6.61,0,0,1,1.26-2.2c.21-.34.46-.65.77-1.08a7.64,7.64,0,0,0,1.35,0,1.3,1.3,0,0,1,1.44.93c.35,1.45,1.21,2.92-.4,4.38-.93.84-1.37,2.25-2,3.43-.85,1.7-1.65,3.42-2.44,5.15a4.77,4.77,0,0,0-.17,1.11c1.86-.16,3.6-.34,5.35-.44,1.11-.07,2.23,0,3.35-.06a8.38,8.38,0,0,0,1-.29l.84-.2a3.57,3.57,0,0,1,.5-.08c1.91-.12,3.82-.25,5.73-.36,1.28-.07,2.56-.1,3.84-.13,1.62,0,2.31-1.26,3.06-2.4.47-.72,1-1.42,1.46-2.14s.92-.55,1.5-.13a4.89,4.89,0,0,0,1.34.61c.75.25.86.78.83,1.47-.06,1.37,0,1.34,1.27,1.23.8-.07,1.61,0,2.41-.07,1-.12,2-.42,3-.52a10,10,0,0,1,2,.23,3.05,3.05,0,0,1,2.86-.87,5.64,5.64,0,0,0,4.12-.78,1,1,0,0,1,.47-.13l5.37-.51,5-.43ZM334.61,32.93l-.09-.07c-.77.91-1.61,1.78-2.29,2.76s-2.28,1.29-2.31,2.7c-.75.7-2.14.52-2.09,2,0,.24-.43.51-.68.75l-2.32,2.23a3.12,3.12,0,0,0-.23.34,9.44,9.44,0,0,1-1.81,2.2c-.64.43-.55,1.05-.9,1.47-.84,1-1.91,1.77-2.69,2.79a24.53,24.53,0,0,1-2.52,3.21,32.6,32.6,0,0,0-2.9,3.57c-.9,1.11-1.78,2.24-2.73,3.31-.52.59-1.28,1-1.76,1.58s-.68,1.49-1.15,2.13c-.73,1-1.63,1.84-2.4,2.8-.31.38-.4.92-.69,1.33-.6.86-1.29,1.65-1.9,2.51-.75,1-1.45,2.13-2.17,3.2a20.58,20.58,0,0,0-1.74,2.64,36.84,36.84,0,0,0-1.56,4.18,7.44,7.44,0,0,0,.79,6.82.9.9,0,0,0,1.31.32A17.93,17.93,0,0,1,303.62,86a8.55,8.55,0,0,0,3.89-1.36,7.09,7.09,0,0,0,1.76.07c.25,0,.49,0,.74,0-.14.25-.21.63-.42.74-1.15.61-2.34,1.14-3.51,1.72-1.56.78-3.11,1.57-4.75,2.4,0,.09.08.38.25.48,1,.6,2,1.2,3.12,1.71s2.13.88,3.2,1.32c.06,0,.16.06.17.11.21.81.87.6,1.43.64a6.54,6.54,0,0,1,1,.13L316,95.39c.17,0,.38,0,.51.09,1,.66,1.66-.06,2.13-.18,0-.77-.17-1.37,0-1.77.62-1.23,1.41-2.38,2.09-3.59.79-1.42,1.54-2.86,2.27-4.31q1.49-2.92,2.94-5.86c.54-1.09,1-2.21,1.53-3.32a25.14,25.14,0,0,1,2-4.31c1-1.35.8-3.27,2.32-4.27-.05-1.24.65-2.19,1.17-3.23.78-1.57,1.37-3.23,2.11-4.83s1.51-2.91,2.21-4.39c.43-.9.72-1.87,1.13-2.78a20.81,20.81,0,0,0,1.37-2.95,28.16,28.16,0,0,1,1.49-3.79c.74-1.74,1.33-3.55,2-5.33a12.45,12.45,0,0,1,.53-1.49c.49-.94,1.15-1.81,1.54-2.79s.57-2.36,1-3.49a44.32,44.32,0,0,1,2-4.46c.38-.74.2-1.8,1.22-2.21.11,0,.14-.37.15-.57,0-2.09,1.1-3.88,1.75-5.78.43-1.26,1.06-2.44,1.56-3.68.08-.19-.08-.51-.21-.72a.85.85,0,0,0-.56.15c-1.54,1.31-3.09,2.62-4.59,4-.79.72-1.47,1.56-2.23,2.31-1.18,1.16-2.41,2.27-3.6,3.42-.51.5-1,1.06-1.46,1.57-.79.8-1.58,1.59-2.41,2.36a7.78,7.78,0,0,1-1.1.72l.23.41Zm-320.37,50,.27.07c.29-.19.57-.49.89-.53,1.32-.2,2.65-.32,4-.48a6.88,6.88,0,0,0,.82-.1l3.71-.93c.2,0,.43,0,.62-.06,1.32-.44,2.61-1,3.95-1.33s2.94-.59,4.4-.92q1.71-.39,3.4-.9c.59-.18,1.12-.54,1.71-.71a14.76,14.76,0,0,0,2.39-.55c.88-.43,1.86-.24,2.78-.85,1.08-.73,2.6-.67,3.82-1.47a7,7,0,0,1,3.06-.9c.82-.08,1-.58,1.34-1.11.48-.88.92-1.78,1.39-2.66s.92-1.78,1.48-2.6,1.39-1.8,2.08-2.71A8.39,8.39,0,0,0,57.13,63c.5-1,.93-2,1.44-2.94.81-1.56,1.67-3.09,2.5-4.64a9.44,9.44,0,0,1,.55-1.27c.51-.68,1.21-1.23,1.65-1.94,1.05-1.7,2-3.44,3-5.2.72-1.33,1.34-2.71,2-4.05.22-.43.67-.78.78-1.22.16-.68,1.19-1.27.33-2.07a3.11,3.11,0,0,1-.43.4c-1.07.68-2.15,1.34-3.21,2s-2.05,1.39-3.07,2.09-2,1.42-3,2.13a1.83,1.83,0,0,0-.31.35c-.45.55-.79,1.34-1.37,1.6-1.17.51-1.74,1.76-3.08,2.1-.84.22-1.51,1.11-2.25,1.7a12.85,12.85,0,0,1-1.55,1.42c-1,.76-1.93,1.53-2.93,2.25-.83.59-1.77,1.05-2.57,1.69s-1.12,1.31-1.79,1.8c-1.08.79-2.3,1.39-3.39,2.17s-1.85,1.56-2.8,2.3-1.83,1.32-2.75,2-1.86,1.3-2.75,2a24.92,24.92,0,0,1-2,1.84,13.44,13.44,0,0,0-4,3.33,1.35,1.35,0,0,1-.32.23c-1.66,1.2-3.38,2.33-5,3.63-1.36,1.12-2.61,2.38-4,3.45a28.41,28.41,0,0,0-2.25,1.9C14.34,82.24,14.33,82.61,14.24,82.89Zm127.3,1.89c-.82,1.52-1.57,2.89-2.3,4.28s-1.27,2.65-2.06,3.88c-1.18,1.83-2.49,3.57-3.78,5.32a7.34,7.34,0,0,0-1.33,2.67c-.3,1.26-.92,2.43-1.32,3.67-.29.9-.48,1.83-.69,2.76a1.36,1.36,0,0,0,1.49,1.82c1-.09,2-.38,3-.54a9.06,9.06,0,0,0,4.58-1.9c.17-.15.27-.41.46-.52a22,22,0,0,0,5.11-4.17c.62-.65,1.13-1.4,1.71-2.08s1.28-1.39,1.86-2.13c.79-1,1.52-2.08,2.27-3.13.59-.83,1.16-1.69,1.75-2.52.87-1.24,1.82-2.44,2.62-3.72a26.48,26.48,0,0,0,1.35-2.87C151.12,84.7,146.32,84.07,141.54,84.78Zm38,1.68c-.27.12-.48.3-.67.27-.49-.06-1-.29-1.46-.32-1.08-.07-2.16,0-3.24-.08-.42,0-.83-.22-1.25-.22s-1.13.18-1.69.16c-1.1-.05-2.19-.22-3.29-.3-1.37-.1-2.73-.2-4.1-.21-.91,0-1.83.14-2.71.22l-.07.31c-.4,1.74-1.24,3.34-1.22,5.23,0,1.24-.65,2.46-.85,3.72-.25,1.63-.33,3.28-.51,4.92a10.6,10.6,0,0,0-.24,1.2c0,.85-.34,1.63.12,2.58a3.65,3.65,0,0,0,2.59,1.85,7.8,7.8,0,0,0,.2,1.13,1.62,1.62,0,0,0,2.29.66c.79-.61,1.62-1.19,2.39-1.82s1.77-1.46,2.59-2.25a18.73,18.73,0,0,1,1.6-1.81c1.77-1.29,2.37-3.42,3.76-5a21.85,21.85,0,0,0,1.67-2.65c.7-1.06,1.46-2.08,2.16-3.14s1.36-2.18,2.05-3.26a3.17,3.17,0,0,1,.42-.45ZM87.12,108.56a10.53,10.53,0,0,0,3.15-.06c1.69-.56,3.55-.26,5.15-1.29,1.2-.77,2.64-1.17,3.9-1.86.66-.36,1.11-1.1,1.76-1.49a3.26,3.26,0,0,0,1.56-2c.39-1.43.76-2.86,1.19-4.28a7.25,7.25,0,0,1,1-2.67,3.69,3.69,0,0,0,.81-2.71,3.84,3.84,0,0,0-1,.26c-.73.45-1.37,1.25-2.13,1.37-1.29.2-2.11,1.08-3.17,1.6a12.31,12.31,0,0,0-1.87.93c-.94.68-1.76,1.52-2.7,2.2-.5.36-1.23.42-1.72.79A13.76,13.76,0,0,0,91.43,101c-.8.84-1.6,1.68-2.41,2.5-.36.36-.89.62-1.11,1A5.28,5.28,0,0,0,87.12,108.56ZM314,110.35l.31.19a8.4,8.4,0,0,0,1.26-1.15c.58-.78.94-1.73,1.58-2.44a29.25,29.25,0,0,0,3-3.68c.22-.34.66-.53.89-.87a11.72,11.72,0,0,0,.72-1.5c-.33-1.12-1.42-.82-2.17-.6-.47.14-.71,1-1.1,1.55-.68.92-1.39,1.82-2.2,2.88a1.71,1.71,0,0,1,0,.47c-.12.75,0,1.48-.66,2.19A12.25,12.25,0,0,0,314,110.35ZM183.14,82c-1.27,0-2.48,0-3.69,0a10,10,0,0,0-1.24.25,6.15,6.15,0,0,0-.72,0c-.08,0-.15.42-.1.45a1.48,1.48,0,0,0,.71.28c1.21,0,2.43,0,3.64,0C182.48,83.09,183,82.92,183.14,82Z"/><path class="cls-1" d="M228.11,74c-.11.19-.19.5-.34.53-.89.19-1.79.28-2.68.48-1.41.32-2.92.14-4.22,1-.11.07-.31,0-.48,0l-.14-.28a3.51,3.51,0,0,1,1-.59c1.12-.23,2.25-.34,3.37-.55.22,0,.39-.32.64-.53-.54-.13-1.08-.13-1.12-.29-.22-.73.5-.4.77-.59,1.54-1.13,3.34-.76,5-1.09.11.44.18,1,.27,1A12.91,12.91,0,0,0,232,72.9l.12.63-4,.51a6.57,6.57,0,0,0,.59-.51,8.39,8.39,0,0,0,.52-.69l-.26-.12-1.61,1.06Z"/><path class="cls-1" d="M459.65,62.84c.33,1.23-.92.72-1.2,1.42C458.28,62.91,458.4,62.78,459.65,62.84Z"/><path class="cls-1" d="M219.25,74.58c.38-.69,1.46-.8,2.45,0h-2.47Z"/></svg>
