<svg id="Layer_1" data-name="Layer 1" xmlns="http://www.w3.org/2000/svg" viewBox="0 0 1024 1024"><defs><style>.cls-1{fill:#fffc00;}.cls-2{fill:#fff;}</style></defs><title>Artboard 1</title><path d="M519.13,180.79a194.84,194.84,0,0,1,79.08,16.94C639,216,672.39,250.6,688.9,292.33c9.45,23.89,9.73,51.4,9.51,76.72-.13,14.61-.82,29.2-1.66,43.78q-.64,11-1.35,22-.37,6-.74,12.06c-.15,2.59-1,6.09-.48,8.64,1.25,5.61,10.15,9.35,15.06,10.9,13,4.08,26.53,1.14,39-3.31,7.44-2.65,14.14-7.09,22.3-6.34,5.91.54,12.76,3.18,17,7.46,4.42,4.5,3.49,8.94-.31,13.25-7.22,8.19-19.14,12.85-29.22,16.17-11,3.63-22.24,6.86-32.53,12.39-10.14,5.45-19.5,13.29-23.5,24.42-4.65,12.94-.77,26.1,4.7,38.08a264.46,264.46,0,0,0,35.47,56.78c26.38,32.46,60.86,58.79,101.3,70.8a180.31,180.31,0,0,0,18,4.36c2.58.48,4.25-.11,3.34,2.64a5.92,5.92,0,0,1-.54,1,20.39,20.39,0,0,1-5.66,5.6c-11.92,8.72-27.62,12.73-41.7,16.18-6.66,1.64-13.38,3-20.12,4.32s-14.86,1.29-21.12,4c-10.45,4.53-12,20.12-14.14,29.74-.83,3.76-1.69,7.51-2.69,11.23-.89,3.3-.62,5-4.14,5-6,.1-12.12-1.5-18-2.59A205.15,205.15,0,0,0,694.58,774c-15.44.37-31.21,2.15-45.56,8.12-13.73,5.72-26,14.35-38.1,22.88-21.13,14.91-42.59,29.7-68.27,35.39-12.87,2.85-26.18,3.15-39.31,2.73a119.86,119.86,0,0,1-40.78-8.57c-24.77-9.94-44.92-27.53-67.27-41.61-12.7-8-26.19-14.34-41.11-16.68A183.08,183.08,0,0,0,306.32,775c-6.19.66-12.33,1.64-18.45,2.79s-12.47,3.24-18.6,3c-2.89-.12-2.92-1-3.69-3.7-1.13-4-2.06-8.11-3-12.2-1.38-6.25-2.54-12.65-4.79-18.66-1.76-4.7-4.36-9.49-9.07-11.76-6-2.9-14.26-2.84-20.8-4.07a307.47,307.47,0,0,1-36.16-8.72c-10.16-3.21-22.41-7.12-30.06-15a13.76,13.76,0,0,1-2-2.45,4.36,4.36,0,0,1-.53-.94c-.83-2.55.16-2.2,2.65-2.66a179,179,0,0,0,34.41-10,198.32,198.32,0,0,0,55.57-34.27c24.28-21,44.38-47,59.37-75.35,5.12-9.68,10.62-20.27,12.35-31.08,4.35-27.14-18-42.5-40.51-50.69-12-4.35-24.29-7.33-35.45-13.67-5.09-2.89-15-8.66-14.21-15.87.58-5.48,7.36-9.18,11.89-10.88a24.41,24.41,0,0,1,9.74-1.72c4,.22,7.37,2.32,11,3.8,13.15,5.39,27.86,9.23,42.14,7,7.14-1.11,14.54-3.82,19.69-9.08,1.24-1.27,1.7-1.8,2-3.34.51-2.84-.37-6.63-.53-9.47-.45-7.58-.94-15.16-1.41-22.74-1.79-28.91-3.52-58-1.37-87,.92-12.41,2.54-24.93,6.16-36.87s9.63-23.12,16.09-33.65a174.39,174.39,0,0,1,45.81-49.93c27-19.65,59.62-30.92,92.76-34.08,10.55-1,21.19-1,31.79-1M0,860.16A163.85,163.85,0,0,0,163.84,1024H860.16A163.85,163.85,0,0,0,1024,860.16V163.84A163.85,163.85,0,0,0,860.16,0H163.84A163.85,163.85,0,0,0,0,163.84V860.16"/><path class="cls-1" d="M19.2,163.84A144.66,144.66,0,0,1,163.84,19.2H860.16A144.66,144.66,0,0,1,1004.8,163.84V860.16A144.66,144.66,0,0,1,860.16,1004.8H163.84A144.66,144.66,0,0,1,19.2,860.16V163.84m499.93,1.66c-24.47.11-48.23,1.61-71.93,8.33-37.79,10.72-71.88,32.26-96.65,62.9-15.35,19-28.69,41.56-34.43,65.45-6.39,26.62-6.34,54.7-5.5,81.9.44,14.37,1.28,28.72,2.18,43.07l.66,10.39c.15,2.33,1.84,11.16.45,12.75-2.9,3.3-12.12,3.07-15.87,2.93a69.68,69.68,0,0,1-19.72-4c-6.93-2.36-13.48-6.55-20.87-7.27a40.93,40.93,0,0,0-32.39,12.13c-13.58,14.37-5,31.33,9.05,41.07,11.32,7.86,24.27,12,37.22,16.24C282,514.9,293.83,519,302,527.08c11.93,11.84,5.25,27.44-1,40.38a244.21,244.21,0,0,1-16.89,29.08c-21.29,31.68-49.68,59.53-84.47,75.94a165,165,0,0,1-32.75,11.44c-5.54,1.3-12.28,1.38-17,4.74a15.69,15.69,0,0,0-6.09,16.1c3.11,15.59,21.79,23.7,35,28.6a251.58,251.58,0,0,0,35.85,10c7.39,1.56,14.83,2.92,22.28,4.14,3.64.6,5.3.35,6.63,3.87a69.46,69.46,0,0,1,2.37,8.41c1.66,7,3,14,4.89,20.85,1.25,4.52,2.88,8.82,6.69,11.82,9.86,7.76,25.46,1.77,36.42-.18,29.26-5.2,61.15-5,87.5,10.14,22.89,13.16,42.65,31,66.6,42.44,25.47,12.18,53.62,15.69,81.6,13.09,26.21-2.44,49.91-13.2,71.66-27.55,23.75-15.67,45.59-35.56,74.78-39.52a175.94,175.94,0,0,1,47.86.18c11,1.53,22.44,5.37,33.62,4.4,15.17-1.33,16.76-17.84,19.39-29.79,1.06-4.81,1.54-12,4.42-16.12,1.69-2.42,6.45-2.17,9.36-2.66q6.11-1,12.19-2.22c21.26-4.15,44.79-9,63.07-21.36,5.29-3.57,10.34-8.12,13-14.06,2.47-5.58,2.55-12.06-1.17-17.11-3.89-5.29-9.58-5.88-15.55-7.08A170.14,170.14,0,0,1,800,658.49c-28.72-19.58-52-46.83-69.39-76.79-3.62-6.24-6.91-12.63-9.92-19.19-4.64-10.12-8.83-22.09-1.61-32.1,6.65-9.22,18.67-13.85,29-17.48,12.7-4.46,25.55-7.94,37.24-14.86,8.53-5,17.49-12.19,19.94-22.31,6.42-26.59-31.59-40-51.35-31.56-12.2,5.24-27,12-40.46,7.51-.87-.29-2.4-.57-3-1.23-1.08-1.11-.51-2.89-.41-4.61.23-3.89.48-7.78.72-11.68.37-6,.76-12,1.12-18.06,1.68-28.46,3-57.18.46-85.63-1.15-12.64-3.08-25.33-7-37.44-3.78-11.81-9.71-23.07-16.08-33.68a190.28,190.28,0,0,0-45.22-51.74c-27.29-21.48-60.44-34.66-94.68-39.78a202.61,202.61,0,0,0-30.24-2.36M220.88,45.66A16.43,16.43,0,1,0,237.3,62.08a16.43,16.43,0,0,0-16.42-16.42m158.79,0a16.43,16.43,0,1,0,16.42,16.42,16.43,16.43,0,0,0-16.42-16.42m52.93,0A16.43,16.43,0,1,0,449,62.08,16.43,16.43,0,0,0,432.6,45.66m52.93,0A16.43,16.43,0,1,0,502,62.08a16.43,16.43,0,0,0-16.42-16.42m105.87,0a16.43,16.43,0,1,0,16.42,16.42A16.43,16.43,0,0,0,591.4,45.66M115,98.59A16.43,16.43,0,1,0,131.45,115,16.43,16.43,0,0,0,115,98.59m52.93,0A16.43,16.43,0,1,0,184.38,115a16.43,16.43,0,0,0-16.43-16.43m105.86,0A16.43,16.43,0,1,0,290.24,115a16.43,16.43,0,0,0-16.43-16.43m52.93,0A16.43,16.43,0,1,0,343.17,115a16.43,16.43,0,0,0-16.43-16.43m105.86,0A16.43,16.43,0,1,0,449,115,16.43,16.43,0,0,0,432.6,98.59m211.73,0A16.43,16.43,0,1,0,660.76,115a16.43,16.43,0,0,0-16.43-16.43m52.93,0A16.43,16.43,0,1,0,713.69,115a16.43,16.43,0,0,0-16.43-16.43m105.86,0A16.43,16.43,0,1,0,819.55,115a16.43,16.43,0,0,0-16.43-16.43m52.93,0A16.43,16.43,0,1,0,872.48,115,16.43,16.43,0,0,0,856,98.59m52.93,0A16.43,16.43,0,1,0,925.41,115,16.43,16.43,0,0,0,909,98.59M750.19,151.52a16.43,16.43,0,1,0,16.43,16.43,16.43,16.43,0,0,0-16.43-16.43m105.86,0a16.43,16.43,0,1,0,16.43,16.43A16.43,16.43,0,0,0,856,151.52M115,204.45a16.43,16.43,0,1,0,16.43,16.43A16.43,16.43,0,0,0,115,204.45m741,0a16.43,16.43,0,1,0,16.43,16.43A16.43,16.43,0,0,0,856,204.45m-794,52.93A16.43,16.43,0,1,0,78.5,273.79a16.43,16.43,0,0,0-16.41-16.41m158.79,0a16.43,16.43,0,1,0,16.41,16.41,16.43,16.43,0,0,0-16.41-16.41m52.93,0a16.43,16.43,0,1,0,16.41,16.41,16.43,16.43,0,0,0-16.41-16.41m529.31,0a16.43,16.43,0,1,0,16.41,16.41,16.43,16.43,0,0,0-16.41-16.41m-741,52.93a16.43,16.43,0,1,0,16.43,16.43,16.43,16.43,0,0,0-16.43-16.43m52.93,0a16.43,16.43,0,1,0,16.43,16.43A16.43,16.43,0,0,0,115,310.31h0m52.93,0a16.43,16.43,0,1,0,16.43,16.43,16.43,16.43,0,0,0-16.43-16.43m582.24,0a16.43,16.43,0,1,0,16.43,16.43,16.43,16.43,0,0,0-16.43-16.43m105.86,0a16.43,16.43,0,1,0,16.43,16.43A16.43,16.43,0,0,0,856,310.31h0m52.93,0a16.43,16.43,0,1,0,16.43,16.43A16.43,16.43,0,0,0,909,310.31m52.93,0a16.43,16.43,0,1,0,16.43,16.43,16.43,16.43,0,0,0-16.43-16.43M62.09,363.24a16.43,16.43,0,1,0,16.43,16.43,16.43,16.43,0,0,0-16.43-16.43m105.86,0a16.43,16.43,0,1,0,16.43,16.43,16.43,16.43,0,0,0-16.43-16.43m582.24,0a16.43,16.43,0,1,0,16.43,16.43,16.43,16.43,0,0,0-16.43-16.43m52.93,0a16.43,16.43,0,1,0,16.43,16.43,16.43,16.43,0,0,0-16.43-16.43h0m158.79,0a16.43,16.43,0,1,0,16.43,16.43,16.43,16.43,0,0,0-16.43-16.43m0,52.93a16.43,16.43,0,1,0,16.41,16.41,16.43,16.43,0,0,0-16.41-16.41M62.09,469.1A16.43,16.43,0,1,0,78.5,485.51,16.43,16.43,0,0,0,62.09,469.1m52.93,0a16.43,16.43,0,1,0,16.41,16.41A16.43,16.43,0,0,0,115,469.1M62.09,522a16.43,16.43,0,1,0,16.43,16.43A16.43,16.43,0,0,0,62.09,522M115,522a16.43,16.43,0,0,0,0,32.86h0A16.43,16.43,0,0,0,115,522m52.93,0a16.43,16.43,0,1,0,16.43,16.43A16.43,16.43,0,0,0,167.95,522m635.17,0a16.43,16.43,0,1,0,0,32.86h0a16.43,16.43,0,0,0,0-32.86M856,522a16.43,16.43,0,1,0,16.43,16.43A16.43,16.43,0,0,0,856,522M909,522a16.43,16.43,0,1,0,0,32.86h0A16.43,16.43,0,0,0,909,522m52.93,0a16.43,16.43,0,1,0,0,32.86h0a16.43,16.43,0,0,0,0-32.86M62.09,575A16.43,16.43,0,1,0,78.52,591.4,16.43,16.43,0,0,0,62.09,575m105.86,0a16.43,16.43,0,1,0,16.43,16.43A16.43,16.43,0,0,0,167.95,575m635.17,0a16.43,16.43,0,1,0,0,32.86h0a16.43,16.43,0,0,0,0-32.86M856,575a16.43,16.43,0,1,0,16.43,16.43A16.43,16.43,0,0,0,856,575M909,575a16.43,16.43,0,1,0,0,32.86h0A16.43,16.43,0,0,0,909,575m52.93,0a16.43,16.43,0,1,0,0,32.86h0a16.43,16.43,0,0,0,0-32.86M62.09,627.9A16.43,16.43,0,1,0,78.5,644.31,16.43,16.43,0,0,0,62.09,627.9m52.93,0a16.43,16.43,0,1,0,16.41,16.41A16.43,16.43,0,0,0,115,627.9m0,52.93a16.43,16.43,0,1,0,16.41,16.41A16.43,16.43,0,0,0,115,680.83m794,0a16.43,16.43,0,1,0,16.41,16.41A16.43,16.43,0,0,0,909,680.83m52.93,0a16.43,16.43,0,1,0,16.41,16.41,16.43,16.43,0,0,0-16.41-16.41M62.09,733.76A16.43,16.43,0,1,0,78.5,750.17a16.43,16.43,0,0,0-16.41-16.41m846.89,0a16.43,16.43,0,1,0,16.41,16.41A16.43,16.43,0,0,0,909,733.76m52.93,0a16.43,16.43,0,1,0,16.41,16.41,16.43,16.43,0,0,0-16.41-16.41M115,786.69a16.43,16.43,0,1,0,16.41,16.41A16.43,16.43,0,0,0,115,786.69m52.93,0a16.43,16.43,0,1,0,16.41,16.41,16.43,16.43,0,0,0-16.41-16.41m52.93,0a16.43,16.43,0,1,0,16.41,16.41,16.43,16.43,0,0,0-16.41-16.41m582.24,0a16.43,16.43,0,1,0,16.41,16.41,16.43,16.43,0,0,0-16.41-16.41m158.79,0a16.43,16.43,0,1,0,16.41,16.41,16.43,16.43,0,0,0-16.41-16.41M115,839.62A16.43,16.43,0,1,0,131.43,856,16.43,16.43,0,0,0,115,839.62m211.72,0A16.43,16.43,0,1,0,343.15,856a16.43,16.43,0,0,0-16.41-16.41m52.93,0A16.43,16.43,0,1,0,396.08,856a16.43,16.43,0,0,0-16.41-16.41m264.66,0A16.43,16.43,0,1,0,660.74,856a16.43,16.43,0,0,0-16.41-16.41m158.79,0A16.43,16.43,0,1,0,819.53,856a16.43,16.43,0,0,0-16.41-16.41m52.93,0A16.43,16.43,0,1,0,872.46,856,16.43,16.43,0,0,0,856,839.62M220.88,892.55A16.43,16.43,0,1,0,237.29,909a16.43,16.43,0,0,0-16.41-16.41m158.79,0A16.43,16.43,0,1,0,396.08,909a16.43,16.43,0,0,0-16.41-16.41m52.93,0A16.43,16.43,0,1,0,449,909a16.43,16.43,0,0,0-16.41-16.41m52.93,0A16.43,16.43,0,1,0,501.94,909a16.43,16.43,0,0,0-16.41-16.41m105.87,0A16.43,16.43,0,1,0,607.81,909a16.43,16.43,0,0,0-16.41-16.41m105.86,0A16.43,16.43,0,1,0,713.67,909a16.43,16.43,0,0,0-16.41-16.41m158.79,0A16.43,16.43,0,1,0,872.46,909,16.43,16.43,0,0,0,856,892.55m52.93,0A16.43,16.43,0,1,0,925.39,909,16.43,16.43,0,0,0,909,892.55M432.6,945.48A16.43,16.43,0,1,0,449,961.91a16.43,16.43,0,0,0-16.43-16.43m52.93,0a16.43,16.43,0,1,0,0,32.86h0a16.43,16.43,0,1,0,0-32.86m52.94,0a16.43,16.43,0,1,0,16.43,16.43,16.43,16.43,0,0,0-16.43-16.43m52.93,0a16.43,16.43,0,1,0,16.43,16.43,16.43,16.43,0,0,0-16.43-16.43m52.93,0a16.43,16.43,0,1,0,16.43,16.43,16.43,16.43,0,0,0-16.43-16.43m105.86,0a16.43,16.43,0,1,0,16.43,16.43,16.43,16.43,0,0,0-16.43-16.43m52.93,0a16.43,16.43,0,1,0,0,32.86h0a16.43,16.43,0,0,0,0-32.86"/><path class="cls-2" d="M519.13,180.79a194.84,194.84,0,0,1,79.08,16.94C639,216,672.39,250.6,688.9,292.33c9.45,23.89,9.73,51.4,9.51,76.72-.13,14.61-.82,29.2-1.66,43.78q-.64,11-1.35,22-.37,6-.74,12.06c-.15,2.59-1,6.09-.48,8.64,1.25,5.61,10.15,9.35,15.06,10.9,13,4.08,26.53,1.14,39-3.31,7.44-2.65,14.14-7.09,22.3-6.34,5.91.54,12.76,3.18,17,7.46,4.42,4.5,3.49,8.94-.31,13.25-7.22,8.19-19.14,12.85-29.22,16.17-11,3.63-22.24,6.86-32.53,12.39-10.14,5.45-19.5,13.29-23.5,24.42-4.65,12.94-.77,26.1,4.7,38.08a264.46,264.46,0,0,0,35.47,56.78c26.38,32.46,60.86,58.79,101.3,70.8a180.31,180.31,0,0,0,18,4.36c2.58.48,4.25-.11,3.34,2.64a5.92,5.92,0,0,1-.54,1,20.39,20.39,0,0,1-5.66,5.6c-11.92,8.72-27.62,12.73-41.7,16.18-6.66,1.64-13.38,3-20.12,4.32s-14.86,1.29-21.12,4c-10.45,4.53-12,20.12-14.14,29.74-.83,3.76-1.69,7.51-2.69,11.23-.89,3.3-.62,5-4.14,5-6,.1-12.12-1.5-18-2.59A205.15,205.15,0,0,0,694.58,774c-15.44.37-31.21,2.15-45.56,8.12-13.73,5.72-26,14.35-38.1,22.88-21.13,14.91-42.59,29.7-68.27,35.39-12.87,2.85-26.18,3.15-39.31,2.73a119.86,119.86,0,0,1-40.78-8.57c-24.77-9.94-44.92-27.53-67.27-41.61-12.7-8-26.19-14.34-41.11-16.68A183.08,183.08,0,0,0,306.32,775c-6.19.66-12.33,1.64-18.45,2.79s-12.47,3.24-18.6,3c-2.89-.12-2.92-1-3.69-3.7-1.13-4-2.06-8.11-3-12.2-1.38-6.25-2.54-12.65-4.79-18.66-1.76-4.7-4.36-9.49-9.07-11.76-6-2.9-14.26-2.84-20.8-4.07a307.47,307.47,0,0,1-36.16-8.72c-10.16-3.21-22.41-7.12-30.06-15a13.76,13.76,0,0,1-2-2.45,4.36,4.36,0,0,1-.53-.94c-.83-2.55.16-2.2,2.65-2.66a179,179,0,0,0,34.41-10,198.32,198.32,0,0,0,55.57-34.27c24.28-21,44.38-47,59.37-75.35,5.12-9.68,10.62-20.27,12.35-31.08,4.35-27.14-18-42.5-40.51-50.69-12-4.35-24.29-7.33-35.45-13.67-5.09-2.89-15-8.66-14.21-15.87.58-5.48,7.36-9.18,11.89-10.88a24.41,24.41,0,0,1,9.74-1.72c4,.22,7.37,2.32,11,3.8,13.15,5.39,27.86,9.23,42.14,7,7.14-1.11,14.54-3.82,19.69-9.08,1.24-1.27,1.7-1.8,2-3.34.51-2.84-.37-6.63-.53-9.47-.45-7.58-.94-15.16-1.41-22.74-1.79-28.91-3.52-58-1.37-87,.92-12.41,2.54-24.93,6.16-36.87s9.63-23.12,16.09-33.65a174.39,174.39,0,0,1,45.81-49.93c27-19.65,59.62-30.92,92.76-34.08,10.55-1,21.19-1,31.79-1"/></svg>
